<svg xmlns="http://www.w3.org/2000/svg" width="1200" height="630" viewBox="0 0 1200 630" role="img" aria-label="ЕК-Дент д-р Елена Колева, зъболекар в Младост 2">
  <defs>
    <linearGradient id="bg" x1="0" y1="0" x2="1" y2="1"><stop offset="0" stop-color="#eefaf8"/><stop offset="0.55" stop-color="#ffffff"/><stop offset="1" stop-color="#d9f0ff"/></linearGradient>
    <linearGradient id="tooth" x1="0" y1="0" x2="1" y2="1"><stop offset="0" stop-color="#16a394"/><stop offset="1" stop-color="#2e6fb7"/></linearGradient>
  </defs>
  <rect width="1200" height="630" rx="46" fill="url(#bg)"/>
  <circle cx="1010" cy="120" r="210" fill="#18a999" opacity=".10"/>
  <circle cx="155" cy="520" r="250" fill="#2e6fb7" opacity=".09"/>
  <g transform="translate(780 168)">
    <path d="M112 0c-41 0-55 35-86 35S-19 0-60 0c-57 0-86 54-74 119 9 51 36 92 52 140 12 35 22 63 49 63 30 0 30-64 59-64s29 64 59 64c27 0 37-28 49-63 16-48 43-89 52-140C198 54 169 0 112 0z" fill="url(#tooth)" opacity=".92"/>
    <path d="M-49 72c28 19 55 23 82 0" fill="none" stroke="#fff" stroke-width="14" stroke-linecap="round" opacity=".7"/>
  </g>
  <text x="86" y="156" fill="#0a3a3b" font-size="36" font-family="Arial, sans-serif" font-weight="700">ЕК-Дент · д-р Елена Колева</text>
  <text x="86" y="258" fill="#062f35" font-size="70" font-family="Arial, sans-serif" font-weight="800">Зъболекар в Младост 2</text>
  <text x="86" y="332" fill="#315a62" font-size="34" font-family="Arial, sans-serif">ул. „проф. д-р Васил Златарски“, София</text>
  <g fill="#0a3a3b" font-family="Arial, sans-serif" font-size="30" font-weight="700">
    <text x="86" y="470">087 814 7471</text>
    <text x="86" y="520">Внимателна дентална грижа за възрастни и деца</text>
  </g>
</svg>
